<svg width="42" height="45" viewBox="0 0 42 45" fill="none" xmlns="http://www.w3.org/2000/svg">
<path d="M7.18 22.06C7.18 22.7733 7.88 23.2933 9.28 23.62C10.7133 23.9733 11.43 24.8667 11.43 26.3C11.43 28.24 10.46 29.21 8.52 29.21C6.52667 29.21 5.52667 28.2667 5.52 26.38C5.50667 26.14 5.63667 26.0067 5.91 25.98L6.65 25.92C6.78333 25.9133 6.89 25.9367 6.97 25.99C7.05667 26.0433 7.10333 26.13 7.11 26.25C7.15 27.21 7.60667 27.69 8.48 27.69C9.35333 27.69 9.79 27.24 9.79 26.34C9.79 25.54 9.09 24.9833 7.69 24.67C6.25667 24.35 5.54333 23.4667 5.55 22.02H5.54C5.54 20.0667 6.51 19.09 8.45 19.09C10.4433 19.09 11.4433 20.0367 11.45 21.93C11.45 22.17 11.3367 22.3067 11.11 22.34L10.36 22.4C10.0733 22.42 9.92333 22.3233 9.91 22.11C9.87 21.0967 9.4 20.59 8.5 20.59C7.62 20.59 7.18 21.08 7.18 22.06ZM17.602 27.62C17.8953 27.62 18.042 27.76 18.042 28.04V28.73C18.042 28.9967 17.892 29.13 17.592 29.13H13.072C12.752 29.13 12.592 28.9367 12.592 28.55V19.83C12.592 19.4033 12.7953 19.19 13.202 19.19H17.532C17.872 19.19 18.042 19.3367 18.042 19.63V20.31C18.042 20.59 17.8853 20.73 17.572 20.73H14.182V23.16H17.092C17.3986 23.16 17.552 23.3167 17.552 23.63V24.17C17.552 24.51 17.3786 24.68 17.032 24.68H14.182V27.62H17.602ZM24.7447 22.14C24.7447 23.34 24.3214 24.1867 23.4747 24.68C24.3214 25.18 24.7447 26.1567 24.7447 27.61V28.7C24.7447 28.9867 24.5847 29.13 24.2647 29.13H23.6047C23.318 29.13 23.1747 28.9867 23.1747 28.7V27.65C23.1747 26.0167 22.3514 25.19 20.7047 25.17V28.72C20.7047 28.9933 20.5614 29.13 20.2747 29.13H19.5747C19.268 29.13 19.1147 28.98 19.1147 28.68V19.71C19.1147 19.3633 19.288 19.19 19.6347 19.19H21.9247C23.8047 19.19 24.7447 20.1733 24.7447 22.14ZM23.1447 22.29C23.1447 21.2833 22.8047 20.78 22.1247 20.78H20.7047V23.61H21.6047C22.6314 23.61 23.1447 23.17 23.1447 22.29ZM26.2811 29.13C26.0611 29.13 25.9511 29 25.9511 28.74V28.09C25.9511 27.83 26.0811 27.7 26.3411 27.7H26.6511V20.61H26.2811C26.0611 20.61 25.9511 20.4833 25.9511 20.23V19.57C25.9511 19.3167 26.0811 19.19 26.3411 19.19H28.6111C28.8578 19.19 28.9811 19.32 28.9811 19.58V20.23C28.9811 20.4833 28.8478 20.61 28.5811 20.61H28.2311V27.7H28.6111C28.8578 27.7 28.9811 27.8333 28.9811 28.1V28.76C28.9811 29.0067 28.8478 29.13 28.5811 29.13H26.2811ZM36.7098 28.73C36.7098 29.0033 36.5598 29.14 36.2598 29.14H35.3398C35.0465 29.14 34.8365 29.01 34.7098 28.75L31.8298 22.92V28.69C31.8298 28.99 31.6765 29.14 31.3698 29.14H30.6498C30.3432 29.14 30.1898 28.99 30.1898 28.69V19.69C30.1898 19.3567 30.3632 19.19 30.7098 19.19H31.4198C31.6732 19.19 31.8632 19.31 31.9898 19.55L35.0998 26.07V19.65C35.0998 19.3433 35.2598 19.19 35.5798 19.19H36.2498C36.5565 19.19 36.7098 19.3367 36.7098 19.63V28.73Z" fill="#E91C0D"/>
<path d="M1.00033 29.0325C1.00032 4.73731 12.6618 1.52888 16.9602 1.02635C23.1472 0.620447 28.4097 5.0079 30.6649 6.99868C41.6286 16.1833 42.0561 19.0013 40.0904 27.119C34.8858 43.7603 23.0315 45.036 17.6541 43.5284C4.23857 39.2608 0.961784 32.0863 1.00033 29.0325Z" stroke="#E91C0D" stroke-width="1.5"/>
</svg>
